<!DOCTYPE svg PUBLIC "-//W3C//DTD SVG 20010904//EN" "http://www.w3.org/TR/2001/REC-SVG-20010904/DTD/svg10.dtd">
<svg version="1.0" xmlns="http://www.w3.org/2000/svg" width="512px" height="512px" viewBox="0 0 5120 5120" preserveAspectRatio="xMidYMid meet">
<g id="layer101" fill="#040404" stroke="none">
 <path d="M2266 4649 c-443 -57 -862 -257 -1185 -564 -351 -334 -568 -756 -636 -1236 -19 -136 -19 -442 0 -577 135 -951 881 -1684 1835 -1802 109 -13 401 -13 510 0 303 38 615 147 862 303 535 338 884 876 973 1499 19 135 19 441 0 577 -135 951 -881 1683 -1835 1801 -100 12 -425 11 -524 -1z"/>
 </g>
<g id="layer102" fill="#fbfbfb" stroke="none">
 <path d="M2266 4649 c-443 -57 -862 -257 -1185 -564 -351 -334 -568 -756 -636 -1236 -19 -136 -19 -442 0 -577 135 -951 881 -1684 1835 -1802 109 -13 401 -13 510 0 303 38 615 147 862 303 535 338 884 876 973 1499 19 135 19 441 0 577 -135 951 -881 1683 -1835 1801 -100 12 -425 11 -524 -1z m472 -60 c477 -51 900 -251 1235 -582 305 -302 500 -674 579 -1107 31 -166 31 -514 0 -680 -79 -433 -272 -802 -578 -1106 -659 -654 -1677 -782 -2479 -310 -458 271 -805 728 -938 1241 -50 190 -61 284 -61 515 0 231 11 325 61 515 193 742 811 1329 1558 1480 217 44 429 56 623 34z"/>
 <path d="M2347 4220 c-418 -53 -794 -250 -1064 -558 -522 -598 -550 -1479 -68 -2113 27 -35 94 -109 149 -164 250 -248 554 -404 916 -467 98 -17 412 -17 510 0 362 63 666 219 916 467 55 55 122 129 149 164 160 210 272 466 322 734 21 115 24 426 5 537 -64 365 -215 661 -467 915 -250 252 -545 407 -896 471 -100 18 -376 26 -472 14z m343 -55 c272 -17 586 -140 825 -324 695 -532 835 -1529 314 -2232 -464 -626 -1314 -832 -2004 -487 -920 461 -1186 1622 -557 2433 274 355 704 585 1147 614 61 4 128 6 150 5 22 -2 78 -6 125 -9z"/>
 <path d="M1635 3268 c-115 -14 -171 -34 -215 -78 -54 -54 -59 -90 -25 -182 16 -40 37 -113 47 -163 18 -79 18 -98 8 -155 -18 -92 -37 -124 -127 -212 -88 -85 -135 -161 -137 -218 -1 -68 41 -88 106 -51 36 21 188 48 308 55 78 5 122 26 128 61 2 10 -14 35 -39 61 -41 41 -42 45 -29 69 20 37 89 85 122 85 34 0 68 -32 68 -64 0 -13 -12 -40 -26 -61 -45 -67 -42 -177 7 -239 43 -55 110 -73 246 -68 111 4 153 96 84 182 l-31 39 22 26 c36 41 198 61 198 25 0 -6 -10 -14 -23 -19 -34 -13 -86 -59 -103 -92 -31 -61 9 -135 97 -179 29 -16 45 -34 68 -82 35 -74 77 -126 119 -151 l31 -17 54 52 c31 31 66 79 83 114 23 48 38 66 70 83 65 35 96 73 101 123 6 57 -21 98 -88 137 -49 28 -50 30 -29 41 30 16 128 4 169 -21 37 -22 39 -48 7 -78 -50 -47 -37 -149 21 -172 15 -6 67 -11 115 -11 146 -1 207 44 230 169 10 57 10 60 -26 131 l-37 73 21 29 c33 47 82 39 148 -23 41 -39 40 -63 -3 -103 -43 -39 -46 -76 -10 -100 16 -10 54 -17 107 -20 108 -5 253 -32 302 -55 48 -23 70 -24 90 -3 46 46 -6 162 -125 280 -110 108 -123 135 -124 254 0 100 10 145 70 309 12 34 13 51 5 75 -12 37 -60 86 -105 109 -71 36 -237 47 -418 27 -51 -5 -139 -14 -197 -21 -252 -26 -720 -19 -1030 16 -192 21 -229 23 -305 13z m310 -82 c290 -41 810 -46 1085 -9 84 11 199 18 305 18 163 0 173 -1 220 -26 68 -34 77 -61 46 -142 -45 -122 -54 -170 -55 -282 -1 -144 13 -175 137 -303 87 -89 140 -162 119 -162 -5 0 -44 9 -88 20 -43 12 -123 24 -176 27 -54 3 -98 10 -98 15 0 6 9 21 20 35 12 16 20 41 20 65 0 31 -8 47 -41 83 -75 82 -165 106 -230 62 -68 -46 -78 -116 -29 -201 26 -46 29 -60 24 -99 -4 -24 -17 -58 -29 -73 -23 -29 -25 -29 -126 -29 -121 0 -132 11 -80 71 83 94 -6 199 -178 211 -72 5 -78 4 -108 -21 -32 -27 -57 -85 -47 -111 3 -7 25 -20 49 -29 60 -23 95 -53 95 -81 0 -26 -45 -68 -94 -89 -24 -10 -39 -28 -59 -72 -15 -33 -42 -77 -60 -99 l-34 -39 -26 29 c-14 17 -43 63 -63 102 -29 57 -44 75 -68 83 -37 13 -69 38 -84 67 -10 18 -8 26 13 52 14 16 44 36 67 43 54 18 65 36 52 84 -6 27 -20 46 -44 62 -32 22 -42 24 -112 18 -119 -8 -189 -53 -202 -128 -6 -31 -2 -41 24 -71 17 -20 30 -46 30 -61 l0 -26 -96 0 c-92 0 -97 1 -124 28 -19 19 -31 44 -35 74 -6 38 -2 54 24 106 17 34 31 76 31 93 0 69 -66 129 -140 129 -79 0 -200 -108 -200 -178 0 -11 11 -36 25 -56 14 -20 25 -39 25 -41 0 -3 -26 -5 -57 -6 -80 0 -177 -13 -247 -33 -32 -9 -61 -14 -64 -11 -10 10 53 91 129 165 105 102 131 159 130 283 0 49 -3 105 -7 125 -6 37 -42 150 -65 208 -11 27 -10 36 3 56 17 26 71 56 123 69 52 12 266 9 370 -5z"/>
 <path d="M1111 2136 c-16 -20 -4 -60 57 -181 72 -145 183 -303 301 -427 66 -71 93 -82 111 -48 10 18 3 29 -52 88 -133 140 -218 261 -300 427 -33 66 -63 127 -67 135 -11 21 -35 24 -50 6z"/>
 <path d="M1710 1350 c-9 -17 -6 -24 13 -43 30 -27 180 -117 196 -117 7 0 29 -9 51 -20 47 -24 86 -26 94 -5 11 29 -5 42 -102 85 -53 23 -123 60 -154 81 -64 44 -83 48 -98 19z"/>
 </g>

</svg>