<!DOCTYPE svg PUBLIC "-//W3C//DTD SVG 20010904//EN" "http://www.w3.org/TR/2001/REC-SVG-20010904/DTD/svg10.dtd">
<svg version="1.0" xmlns="http://www.w3.org/2000/svg" width="512px" height="512px" viewBox="0 0 5120 5120" preserveAspectRatio="xMidYMid meet">
<g id="layer101" fill="#010101" stroke="none">
 <path d="M2266 4649 c-443 -57 -862 -257 -1185 -564 -351 -334 -568 -756 -636 -1236 -19 -136 -19 -442 0 -577 135 -951 881 -1684 1835 -1802 109 -13 401 -13 510 0 622 77 1167 416 1513 940 138 210 233 441 303 741 39 164 39 164 37 366 -1 222 -12 332 -49 500 -192 870 -913 1522 -1804 1633 -100 12 -425 11 -524 -1z"/>
 </g>
<g id="layer102" fill="#fafafa" stroke="none">
 <path d="M2320 4590 c-481 -60 -895 -257 -1225 -585 -305 -303 -498 -672 -577 -1105 -31 -166 -31 -514 0 -680 159 -867 812 -1517 1677 -1671 187 -33 493 -33 680 0 425 75 800 269 1100 566 305 303 498 672 577 1105 31 166 31 514 0 680 -79 433 -272 802 -577 1105 -298 296 -678 492 -1095 565 -142 25 -435 35 -560 20z m499 -384 c351 -64 646 -219 896 -471 252 -254 403 -550 467 -915 19 -111 16 -422 -5 -537 -50 -268 -162 -524 -322 -734 -27 -35 -94 -109 -149 -164 -250 -248 -554 -404 -916 -467 -98 -17 -412 -17 -510 0 -362 63 -666 219 -916 467 -55 55 -122 129 -149 164 -384 505 -452 1180 -175 1746 248 509 734 853 1307 925 96 12 372 4 472 -14z"/>
 <path d="M2415 4169 c-517 -34 -999 -334 -1267 -789 -295 -499 -296 -1128 -3 -1625 503 -854 1634 -1060 2405 -438 614 495 774 1376 375 2058 -102 174 -253 346 -410 466 -239 184 -553 307 -825 324 -47 3 -103 7 -125 9 -22 1 -89 -1 -150 -5z m-485 -914 c337 -36 785 -43 1040 -16 52 6 139 15 192 21 186 20 351 9 423 -27 45 -23 93 -72 105 -109 8 -24 7 -41 -5 -75 -61 -164 -68 -193 -69 -299 -1 -130 10 -153 123 -264 119 -118 171 -234 125 -280 -20 -21 -42 -20 -90 3 -49 23 -197 51 -304 56 -52 2 -90 9 -105 19 -36 24 -33 61 10 100 43 40 44 64 3 103 -66 62 -115 70 -148 23 l-21 -29 37 -73 c36 -71 36 -74 26 -131 -23 -125 -84 -170 -230 -169 -48 0 -100 5 -115 11 -58 23 -71 125 -21 172 32 30 30 56 -7 78 -41 25 -139 37 -169 21 -21 -11 -20 -13 29 -41 67 -39 94 -80 88 -137 -5 -50 -36 -88 -101 -123 -32 -17 -47 -35 -70 -81 -15 -33 -53 -84 -83 -114 l-54 -55 -31 18 c-42 25 -84 77 -119 151 -23 48 -39 66 -68 82 -88 44 -128 118 -97 179 17 33 69 79 103 92 13 5 23 13 23 19 0 36 -162 16 -198 -25 l-22 -26 31 -39 c45 -56 46 -111 1 -151 -26 -23 -43 -29 -85 -31 -136 -5 -203 13 -246 68 -49 62 -52 172 -7 239 14 21 26 48 26 61 0 32 -34 64 -68 64 -33 0 -102 -48 -122 -85 -13 -24 -12 -28 29 -69 25 -26 41 -51 39 -61 -7 -36 -50 -56 -134 -61 -117 -7 -264 -34 -302 -55 -65 -37 -107 -17 -106 51 2 57 49 133 137 218 86 84 107 118 127 205 12 51 11 68 -7 155 -11 53 -32 130 -47 170 -35 92 -30 128 24 182 43 43 100 64 215 79 75 9 91 8 295 -14z m-769 -1125 c4 -8 35 -71 69 -139 82 -165 164 -282 298 -423 55 -59 62 -70 52 -88 -18 -34 -45 -23 -111 48 -118 124 -229 282 -301 427 -61 121 -73 161 -57 181 15 18 39 15 50 -6z m647 -798 c31 -22 101 -59 154 -83 98 -44 112 -56 102 -84 -8 -21 -47 -19 -94 5 -22 11 -44 20 -51 20 -16 0 -166 90 -196 117 -19 19 -22 26 -13 43 15 29 33 25 98 -18z"/>
 <path d="M1575 3191 c-52 -13 -106 -43 -123 -69 -13 -20 -14 -29 -3 -56 23 -58 59 -171 65 -208 4 -20 7 -76 7 -125 1 -124 -25 -181 -130 -283 -77 -75 -139 -155 -129 -166 3 -2 40 4 82 16 42 11 124 23 181 27 58 3 105 7 105 9 0 2 -11 20 -25 40 -14 20 -25 45 -25 56 0 70 121 178 200 178 74 0 140 -60 140 -129 0 -17 -14 -59 -31 -93 -26 -52 -30 -68 -24 -106 4 -30 16 -55 35 -74 27 -27 32 -28 124 -28 l96 0 0 26 c0 15 -13 41 -30 61 -26 30 -30 40 -24 71 13 75 83 120 202 128 70 6 80 4 112 -18 24 -16 38 -35 44 -62 13 -48 2 -66 -52 -84 -23 -7 -53 -27 -67 -43 -21 -26 -23 -34 -13 -52 15 -29 47 -54 84 -67 24 -8 39 -26 68 -83 20 -39 48 -85 62 -102 l25 -30 35 40 c19 22 46 66 61 99 20 44 35 62 59 72 49 21 94 63 94 89 0 28 -35 58 -95 81 -24 9 -46 22 -49 29 -10 26 15 84 47 111 30 25 36 26 108 21 172 -12 261 -117 178 -211 -52 -60 -41 -71 80 -71 101 0 103 0 126 29 12 15 25 49 29 73 5 39 2 53 -24 99 -49 85 -39 155 29 201 65 44 155 20 230 -62 33 -36 41 -52 41 -83 0 -24 -8 -49 -20 -65 -11 -14 -20 -29 -20 -35 0 -5 44 -12 98 -15 53 -3 133 -15 176 -27 44 -11 83 -20 88 -20 21 0 -32 73 -119 162 -124 128 -138 159 -137 303 1 112 9 153 56 282 30 81 21 108 -47 142 -47 25 -57 26 -220 26 -106 0 -221 -7 -305 -18 -275 -37 -806 -32 -1082 9 -101 14 -320 17 -373 5z"/>
 <path d="M4644 2470 c0 -58 1 -81 3 -52 2 28 2 76 0 105 -2 28 -3 5 -3 -53z"/>
 <path d="M4633 2320 c0 -25 2 -35 4 -22 2 12 2 32 0 45 -2 12 -4 2 -4 -23z"/>
 </g>

</svg>