<!DOCTYPE svg PUBLIC "-//W3C//DTD SVG 20010904//EN" "http://www.w3.org/TR/2001/REC-SVG-20010904/DTD/svg10.dtd">
<svg version="1.0" xmlns="http://www.w3.org/2000/svg" width="512px" height="512px" viewBox="0 0 5120 5120" preserveAspectRatio="xMidYMid meet">
<g id="layer101" fill="#030303" stroke="none">
 <path d="M2266 4649 c-443 -57 -862 -257 -1185 -564 -351 -334 -568 -756 -636 -1236 -19 -136 -19 -442 0 -577 135 -951 881 -1684 1835 -1802 109 -13 401 -13 510 0 303 38 615 147 862 303 535 338 884 876 973 1499 19 135 19 441 0 577 -135 951 -881 1683 -1835 1801 -100 12 -425 11 -524 -1z"/>
 </g>
<g id="layer102" fill="#fafafa" stroke="none">
 <path d="M2266 4649 c-443 -57 -862 -257 -1185 -564 -351 -334 -568 -756 -636 -1236 -19 -136 -19 -442 0 -577 135 -951 881 -1684 1835 -1802 109 -13 401 -13 510 0 303 38 615 147 862 303 535 338 884 876 973 1499 19 135 19 441 0 577 -135 951 -881 1683 -1835 1801 -100 12 -425 11 -524 -1z m472 -60 c478 -51 903 -252 1236 -583 306 -304 499 -673 578 -1106 31 -166 31 -514 0 -680 -159 -868 -811 -1517 -1677 -1671 -187 -33 -493 -33 -680 0 -425 75 -800 268 -1099 565 -306 304 -499 673 -578 1106 -28 154 -31 503 -5 655 132 764 641 1366 1365 1616 265 91 587 128 860 98z"/>
 <path d="M2347 4220 c-873 -110 -1510 -851 -1474 -1715 10 -224 47 -393 133 -596 83 -197 196 -363 358 -524 250 -248 554 -404 916 -467 98 -17 412 -17 510 0 362 63 666 219 916 467 55 55 122 129 149 164 160 210 272 466 322 734 21 115 24 426 5 537 -64 365 -215 661 -467 915 -250 252 -545 407 -896 471 -100 18 -376 26 -472 14z m343 -55 c272 -17 586 -140 825 -324 695 -532 835 -1529 314 -2232 -548 -739 -1592 -870 -2309 -292 -615 496 -775 1382 -372 2063 230 389 617 668 1059 761 99 21 285 38 358 33 22 -2 78 -6 125 -9z"/>
 <path d="M1111 2136 c-16 -20 -4 -60 57 -181 72 -145 183 -303 301 -427 66 -71 93 -82 111 -48 10 18 3 29 -52 88 -133 140 -218 261 -300 427 -33 66 -63 127 -67 135 -11 21 -35 24 -50 6z"/>
 <path d="M1711 1356 c-6 -7 -9 -20 -5 -29 14 -39 272 -177 328 -177 25 0 39 20 30 43 -3 8 -48 33 -102 57 -53 23 -123 60 -154 81 -61 42 -79 47 -97 25z"/>
 </g>

</svg>