<!DOCTYPE svg PUBLIC "-//W3C//DTD SVG 20010904//EN" "http://www.w3.org/TR/2001/REC-SVG-20010904/DTD/svg10.dtd">
<svg version="1.0" xmlns="http://www.w3.org/2000/svg" width="512px" height="512px" viewBox="0 0 5120 5120" preserveAspectRatio="xMidYMid meet">
<g id="layer101" fill="#090909" stroke="none">
 <path d="M2266 4649 c-443 -57 -862 -257 -1185 -564 -351 -334 -568 -756 -636 -1236 -19 -136 -19 -442 0 -577 135 -951 881 -1684 1835 -1802 109 -13 401 -13 510 0 622 77 1167 416 1513 940 138 210 233 441 303 741 39 164 39 164 37 366 -1 222 -12 332 -49 500 -192 870 -913 1522 -1804 1633 -100 12 -425 11 -524 -1z"/>
 </g>
<g id="layer102" fill="#f9f9f9" stroke="none">
 <path d="M2325 4589 c-464 -49 -899 -255 -1230 -584 -547 -544 -742 -1343 -504 -2070 254 -777 930 -1321 1748 -1404 695 -72 1403 239 1826 801 557 738 551 1744 -14 2476 -427 552 -1132 854 -1826 781z m494 -383 c353 -65 640 -216 891 -466 256 -256 406 -550 472 -920 19 -111 16 -421 -5 -537 -51 -269 -162 -523 -322 -734 -70 -92 -248 -265 -341 -330 -219 -156 -452 -253 -724 -301 -98 -17 -412 -17 -510 0 -272 48 -505 145 -724 301 -93 65 -271 238 -341 330 -432 569 -459 1344 -67 1936 268 405 691 665 1192 735 93 13 380 4 479 -14z"/>
 <path d="M2465 4173 c-729 -31 -1356 -563 -1506 -1279 -36 -175 -42 -425 -14 -589 122 -701 676 -1239 1375 -1335 109 -15 321 -15 430 0 649 89 1186 568 1345 1200 34 136 47 246 47 395 0 72 -5 168 -12 215 -80 584 -464 1068 -1022 1289 -184 73 -430 112 -643 104z m-1304 -2043 c4 -8 34 -69 67 -135 82 -166 167 -287 300 -427 55 -59 62 -70 52 -88 -18 -34 -45 -23 -111 48 -118 124 -229 282 -301 427 -61 121 -73 161 -57 181 15 18 39 15 50 -6z m647 -798 c31 -22 100 -58 152 -81 52 -24 99 -46 103 -51 17 -15 -3 -50 -28 -50 -57 0 -315 138 -329 177 -7 18 10 43 31 43 8 0 40 -17 71 -38z"/>
 <path d="M4644 2470 c0 -58 1 -81 3 -52 2 28 2 76 0 105 -2 28 -3 5 -3 -53z"/>
 <path d="M4633 2320 c0 -25 2 -35 4 -22 2 12 2 32 0 45 -2 12 -4 2 -4 -23z"/>
 </g>

</svg>