<!DOCTYPE svg PUBLIC "-//W3C//DTD SVG 20010904//EN" "http://www.w3.org/TR/2001/REC-SVG-20010904/DTD/svg10.dtd">
<svg version="1.0" xmlns="http://www.w3.org/2000/svg" width="512px" height="512px" viewBox="0 0 5120 5120" preserveAspectRatio="xMidYMid meet">
<g id="layer101" fill="#010101" stroke="none">
 <path d="M2266 4649 c-443 -57 -862 -257 -1185 -564 -351 -334 -568 -756 -636 -1236 -19 -136 -19 -442 0 -577 135 -951 881 -1684 1835 -1802 109 -13 401 -13 510 0 880 109 1599 751 1799 1607 69 296 70 669 1 962 -202 861 -918 1501 -1800 1611 -100 12 -425 11 -524 -1z"/>
 </g>
<g id="layer102" fill="#fafafa" stroke="none">
 <path d="M2320 4590 c-481 -60 -895 -257 -1225 -585 -305 -303 -498 -672 -577 -1105 -31 -166 -31 -514 0 -680 159 -867 812 -1517 1677 -1671 187 -33 493 -33 680 0 425 75 800 269 1100 566 305 303 498 672 577 1105 31 166 31 514 0 680 -79 433 -272 802 -577 1105 -298 296 -678 492 -1095 565 -142 25 -435 35 -560 20z m499 -384 c351 -64 646 -219 896 -471 252 -254 403 -550 467 -915 19 -111 16 -422 -5 -537 -50 -268 -162 -524 -322 -734 -27 -35 -94 -109 -149 -164 -250 -248 -554 -404 -916 -467 -98 -17 -412 -17 -510 0 -362 63 -666 219 -916 467 -55 55 -122 129 -149 164 -384 505 -452 1180 -175 1746 248 509 734 853 1307 925 96 12 372 4 472 -14z"/>
 <path d="M2415 4169 c-517 -34 -999 -334 -1267 -789 -295 -499 -296 -1128 -3 -1625 503 -854 1634 -1060 2405 -438 614 495 774 1376 375 2058 -102 174 -253 346 -410 466 -239 184 -553 307 -825 324 -47 3 -103 7 -125 9 -22 1 -89 -1 -150 -5z"/>
 </g>

</svg>